<svg xmlns="http://www.w3.org/2000/svg" width="227.473" height="123.729" viewBox="0 0 227.473 123.729">
  <g id="Group_46" data-name="Group 46" transform="translate(-17892.055 -9531.771)">
    <path id="Path_139" data-name="Path 139" d="M14.6.572c8.061,0,14.6,6.071,14.6,14.132A14.6,14.6,0,0,1,0,14.7C0,6.643,6.535.572,14.6.572Z" transform="translate(17909.971 9531.334)"/>
    <path id="Path_140" data-name="Path 140" d="M14.6.406a14.319,14.319,0,0,1,14.6,14.267A14.6,14.6,0,0,1,0,14.673,14.319,14.319,0,0,1,14.6.406Z" transform="translate(18072.152 9531.365)"/>
    <path id="Path_141" data-name="Path 141" d="M12187.24,3026.751s48.425,48.763,108.781,48.763,105.965-48.763,105.965-48.763" transform="translate(5711.18 6575.485)" fill="none" stroke="#000" stroke-linecap="round" stroke-width="9"/>
  </g>
</svg>
