<svg xmlns="http://www.w3.org/2000/svg" width="374.254" height="897.738" viewBox="0 0 374.254 897.738">
  <g id="Group_45" data-name="Group 45" transform="translate(-18274.125 -6723.242)">
    <rect id="Rectangle_72" data-name="Rectangle 72" width="43.57" height="120.46" rx="21.785" transform="translate(18603.371 6924.012) rotate(30)" fill="#43979d"/>
    <g id="Group_43" data-name="Group 43">
      <path id="Path_89" data-name="Path 89" d="M1815.77,512.51l-31.66,454.47h89.02l-15.17-467.75" transform="translate(16591 6654)" fill="#e8a374"/>
      <path id="Path_91" data-name="Path 91" d="M1932.61,512.51l31.66,454.47h-89.02l15.16-467.75" transform="translate(16591 6654)" fill="#e8a374"/>
      <path id="Path_82" data-name="Path 82" d="M1853.14,242.77h40a63.59,63.59,0,0,1,63.59,63.59V485.68a36.38,36.38,0,0,1-36.38,36.38h-94.39a36.38,36.38,0,0,1-36.38-36.38V306.37a63.592,63.592,0,0,1,63.57-63.6Z" transform="translate(16591 6654)" fill="#43979d"/>
      <circle id="Ellipse_75" data-name="Ellipse 75" cx="77.79" cy="77.79" r="77.79" transform="translate(18383.1 6724.63)" fill="#e8a374"/>
      <ellipse id="Ellipse_82" data-name="Ellipse 82" cx="21.322" cy="32.329" rx="21.322" ry="32.329" transform="translate(18446.027 6851.915) rotate(-4.004)" fill="#e8a374"/>
      <ellipse id="Ellipse_74" data-name="Ellipse 74" cx="15.72" cy="19.4" rx="15.72" ry="19.4" transform="translate(18367.391 6786.6)" fill="#e8a374"/>
      <ellipse id="Ellipse_94" data-name="Ellipse 94" cx="15.72" cy="19.4" rx="15.72" ry="19.4" transform="translate(18526.199 6786.6)" fill="#e8a374"/>
      <path id="Path_83" data-name="Path 83" d="M863.37,515.47c-1.08,3.6,11.53,7.36,15.27,7.14s6.86-3,9.12-6,4-6.4,6.83-8.92a16.26,16.26,0,0,1,20.46-.58c2.43,2,4.22,4.6,6.49,6.75s5.34,3.86,8.41,3.25c6.24-1.25,8-10.69,14.17-12.09,4.6-1,8.66,2.93,11.81,6.44s7.59,7.26,12,5.68c3.91-1.39,5.75-6.38,9.74-7.49s8.1,4.75,11,7.62c4.5,4.53,9.12,7.19,13.61,11.72.09-10.42-5.33-21.37-12.47-29s-16.46-12.84-26.2-16.57c-17.13-6.55-36.4-8.54-53.92-3.11s-34.28,14-43.41,29.55" transform="translate(17531.34 6246.07)" fill="#231f20"/>
      <path id="Path_84" data-name="Path 84" d="M881.22,555a17.029,17.029,0,0,1,13.61-4.43,16.62,16.62,0,0,1,10.22,5.79" transform="translate(17531.34 6246.07)" fill="none" stroke="#231f20" stroke-linecap="round" stroke-miterlimit="10" stroke-width="3"/>
      <path id="Path_88" data-name="Path 88" d="M941.49,588.32c-.63.7-5.55,6-13.2,5.55a16.61,16.61,0,0,1-10.66-4.9" transform="translate(17531.34 6246.07)" fill="none" stroke="#231f20" stroke-linecap="round" stroke-miterlimit="10" stroke-width="3"/>
      <path id="Path_93" data-name="Path 93" d="M953,555a17.058,17.058,0,0,1,13.62-4.43,16.59,16.59,0,0,1,10.21,5.79" transform="translate(17531.34 6246.07)" fill="none" stroke="#231f20" stroke-linecap="round" stroke-miterlimit="10" stroke-width="3"/>
      <path id="Path_77" data-name="Path 77" d="M842.15,552.78c2-4,5.28-6.06,7.58-5.36,2.09.64,2.94,3.44,3.33,4.7a12.14,12.14,0,0,1-.52,8.15" transform="translate(17531.34 6246.07)" fill="none" stroke="#231f20" stroke-linecap="round" stroke-miterlimit="10" stroke-width="2"/>
      <path id="Path_78" data-name="Path 78" d="M846.66,553.21a4.07,4.07,0,0,1,4-1.36,4.24,4.24,0,0,1,2.85,2.47" transform="translate(17531.34 6246.07)" fill="none" stroke="#231f20" stroke-linecap="round" stroke-miterlimit="10" stroke-width="2"/>
      <path id="Path_94" data-name="Path 94" d="M1019.57,552.78c-2-4-5.27-6.06-7.58-5.36-2.08.64-2.94,3.44-3.33,4.7a12.13,12.13,0,0,0,.53,8.15" transform="translate(17531.34 6246.07)" fill="none" stroke="#231f20" stroke-linecap="round" stroke-miterlimit="10" stroke-width="2"/>
      <path id="Path_95" data-name="Path 95" d="M1015.06,553.21a4.07,4.07,0,0,0-4-1.36,4.24,4.24,0,0,0-2.85,2.47" transform="translate(17531.34 6246.07)" fill="none" stroke="#231f20" stroke-linecap="round" stroke-miterlimit="10" stroke-width="2"/>
      <path id="Path_87" data-name="Path 87" d="M912.05,688.61" transform="translate(17531.34 6246.07)" fill="#43979d"/>
      <path id="Path_86" data-name="Path 86" d="M897.27,652.62C893.12,679,913.18,700.79,933.5,701s41-21.23,37.36-47.72" transform="translate(17531.34 6246.07)" fill="none" stroke="#e8a374" stroke-miterlimit="10" stroke-width="1"/>
      <circle id="Ellipse_76" data-name="Ellipse 76" cx="1.02" cy="1.02" r="1.02" transform="translate(18420.16 6910.85)" fill="#e8a374"/>
      <circle id="Ellipse_77" data-name="Ellipse 77" cx="1.02" cy="1.02" r="1.02" transform="translate(18422.199 6919.45)" fill="#e8a374"/>
      <circle id="Ellipse_78" data-name="Ellipse 78" cx="1.02" cy="1.02" r="1.02" transform="translate(18425.779 6926.31)" fill="#e8a374"/>
      <circle id="Ellipse_79" data-name="Ellipse 79" cx="1.02" cy="1.02" r="1.02" transform="translate(18429.52 6932.38)" fill="#e8a374"/>
      <circle id="Ellipse_80" data-name="Ellipse 80" cx="1.02" cy="1.02" r="1.02" transform="translate(18434.75 6938.8)" fill="#e8a374"/>
      <circle id="Ellipse_81" data-name="Ellipse 81" cx="1.02" cy="1.02" r="1.02" transform="translate(18443.02 6944.42)" fill="#e8a374"/>
      <circle id="Ellipse_83" data-name="Ellipse 83" cx="1.02" cy="1.02" r="1.02" transform="translate(18451.529 6948.25)" fill="#e8a374"/>
      <circle id="Ellipse_84" data-name="Ellipse 84" cx="1.02" cy="1.02" r="1.02" transform="translate(18462.279 6950.66)" fill="#e8a374"/>
      <circle id="Ellipse_85" data-name="Ellipse 85" cx="1.02" cy="1.02" r="1.02" transform="translate(18472.131 6950.13)" fill="#e8a374"/>
      <circle id="Ellipse_87" data-name="Ellipse 87" cx="1.02" cy="1.02" r="1.02" transform="translate(18480.41 6946.94)" fill="#e8a374"/>
      <circle id="Ellipse_88" data-name="Ellipse 88" cx="1.02" cy="1.02" r="1.02" transform="translate(18488.27 6942.21)" fill="#e8a374"/>
      <circle id="Ellipse_89" data-name="Ellipse 89" cx="1.02" cy="1.02" r="1.02" transform="translate(18494.74 6935.92)" fill="#e8a374"/>
      <circle id="Ellipse_90" data-name="Ellipse 90" cx="1.02" cy="1.02" r="1.02" transform="translate(18500.051 6928.36)" fill="#e8a374"/>
      <circle id="Ellipse_91" data-name="Ellipse 91" cx="1.02" cy="1.02" r="1.02" transform="translate(18503.34 6920.8)" fill="#e8a374"/>
      <circle id="Ellipse_92" data-name="Ellipse 92" cx="1.02" cy="1.02" r="1.02" transform="translate(18505.23 6913.08)" fill="#e8a374"/>
      <circle id="Ellipse_93" data-name="Ellipse 93" cx="1.02" cy="1.02" r="1.02" transform="translate(18505.57 6905.66)" fill="#e8a374"/>
      <rect id="Rectangle_65" data-name="Rectangle 65" width="43.57" height="120.46" rx="21.785" transform="translate(18363.861 7046.464) rotate(-150)" fill="#43979d"/>
      <rect id="Rectangle_66" data-name="Rectangle 66" width="43.57" height="120.46" rx="21.785" transform="translate(18382.984 7024.674) rotate(150)" fill="#43979d"/>
      <rect id="Rectangle_71" data-name="Rectangle 71" width="43.57" height="120.46" rx="21.785" transform="translate(18506.283 6946.495) rotate(-30)" fill="#43979d"/>
      <path id="Path_81" data-name="Path 81" d="M849.06,771.64A97.579,97.579,0,0,1,854.13,759c1.93-4.09,4-8.08,6.29-12s4.66-7.73,7.23-11.45a95.683,95.683,0,0,1,8.47-10.73,96.257,96.257,0,0,1-5.06,12.7q-2.91,6.12-6.31,12t-7.23,11.45a96.746,96.746,0,0,1-8.46,10.67Z" transform="translate(17531.34 6246.07)" fill="#231f20"/>
      <path id="Path_85" data-name="Path 85" d="M771.8,809.63" transform="translate(17531.34 6246.07)" fill="none" stroke="#231f20" stroke-miterlimit="10" stroke-width="1"/>
      <path id="Path_79" data-name="Path 79" d="M793.59,688.61a21.79,21.79,0,1,1-37.2-15.4,22.131,22.131,0,0,1,6.89-4.66,21.82,21.82,0,0,1,30.31,20.06Z" transform="translate(17531.34 6246.07)" fill="#e8a374"/>
      <rect id="Rectangle_67" data-name="Rectangle 67" width="10.81" height="15.4" rx="5.4" transform="translate(18274.125 6928.667) rotate(-45)" fill="#e8a374"/>
      <rect id="Rectangle_68" data-name="Rectangle 68" width="10.81" height="15.4" rx="5.4" transform="translate(18280.355 6918.896) rotate(-34.35)" fill="#e8a374"/>
      <rect id="Rectangle_69" data-name="Rectangle 69" width="10.81" height="15.4" rx="5.4" transform="translate(18288.355 6912.506) rotate(-34.35)" fill="#e8a374"/>
      <rect id="Rectangle_70" data-name="Rectangle 70" width="10.81" height="15.4" rx="5.4" transform="translate(18319.309 6917.904) rotate(36.61)" fill="#e8a374"/>
      <rect id="Rectangle_64" data-name="Rectangle 64" width="10.81" height="38.27" rx="5.4" transform="translate(18290.832 6890.971) rotate(-21.8)" fill="#e8a374"/>
      <path id="Path_96" data-name="Path 96" d="M1066.25,694.48A21.79,21.79,0,1,0,1088,672.69a21.79,21.79,0,0,0-21.75,21.79Z" transform="translate(17531.34 6246.07)" fill="#e8a374"/>
      <rect id="Rectangle_77" data-name="Rectangle 77" width="10.81" height="15.4" rx="5.4" transform="translate(18637.49 6945.421) rotate(-135)" fill="#e8a374"/>
      <rect id="Rectangle_75" data-name="Rectangle 75" width="10.824" height="15.419" rx="5.407" transform="translate(18625.684 6939.137) rotate(-145.993)" fill="#e8a374"/>
      <rect id="Rectangle_76" data-name="Rectangle 76" width="10.81" height="15.4" rx="5.4" transform="translate(18625.367 6931.048) rotate(-145.65)" fill="#e8a374"/>
      <rect id="Rectangle_73" data-name="Rectangle 73" width="10.81" height="15.4" rx="5.4" transform="translate(18612.453 6936.072) rotate(143.39)" fill="#e8a374"/>
      <rect id="Rectangle_74" data-name="Rectangle 74" width="10.81" height="38.27" rx="5.4" transform="translate(18617.355 6932.344) rotate(-158.2)" fill="#e8a374"/>
      <path id="Path_80" data-name="Path 80" d="M794,681.62a29.6,29.6,0,0,1-1.67,3,15.01,15.01,0,0,1-1,1.47,6.186,6.186,0,0,1-1.37,1.23,6,6,0,0,1-3.5,1,8.12,8.12,0,0,1-3.38-1,16.118,16.118,0,0,0,3.37.19,6.631,6.631,0,0,0,3-1,9.259,9.259,0,0,0,2.26-2.32,30.983,30.983,0,0,1,2.29-2.57Z" transform="translate(17531.34 6246.07)" fill="#231f20"/>
      <path id="Path_97" data-name="Path 97" d="M862.49,1355.51" transform="translate(17531.34 6246.07)" fill="#e8a374"/>
      <path id="Path_98" data-name="Path 98" d="M908.79,1363" transform="translate(17531.34 6246.07)" fill="#e8a374"/>
      <line id="Line_28" data-name="Line 28" y2="12.26" transform="translate(18401.32 7601.57)" fill="#e8a374" stroke="#231f20" stroke-linecap="round" stroke-miterlimit="10" stroke-width="5"/>
      <line id="Line_29" data-name="Line 29" y2="12.26" transform="translate(18388.641 7601.57)" fill="#e8a374" stroke="#231f20" stroke-linecap="round" stroke-miterlimit="10" stroke-width="5"/>
      <line id="Line_30" data-name="Line 30" y2="12.26" transform="translate(18420.721 7601.57)" fill="#e8a374" stroke="#231f20" stroke-linecap="round" stroke-miterlimit="10" stroke-width="5"/>
      <line id="Line_31" data-name="Line 31" y2="12.26" transform="translate(18441.49 7601.57)" fill="#e8a374" stroke="#231f20" stroke-linecap="round" stroke-miterlimit="10" stroke-width="5"/>
      <line id="Line_32" data-name="Line 32" y2="12.26" transform="translate(18488.039 7602.93)" fill="#e8a374" stroke="#231f20" stroke-linecap="round" stroke-miterlimit="10" stroke-width="5"/>
      <line id="Line_33" data-name="Line 33" y2="12.26" transform="translate(18504.811 7602.93)" fill="#e8a374" stroke="#231f20" stroke-linecap="round" stroke-miterlimit="10" stroke-width="5"/>
      <line id="Line_34" data-name="Line 34" y2="12.26" transform="translate(18521.4 7602.93)" fill="#e8a374" stroke="#231f20" stroke-linecap="round" stroke-miterlimit="10" stroke-width="5"/>
      <line id="Line_35" data-name="Line 35" y2="12.26" transform="translate(18539.02 7602.93)" fill="#e8a374" stroke="#231f20" stroke-linecap="round" stroke-miterlimit="10" stroke-width="5"/>
      <path id="Path_90" data-name="Path 90" d="M1806.23,504l-24.85,119.15h91.75l-2.22-121.2" transform="translate(16591 6654)" fill="#43979d"/>
      <path id="Path_92" data-name="Path 92" d="M1943.84,504l24.85,119.15h-91.74l2.21-121.2" transform="translate(16591 6654)" fill="#43979d"/>
      <circle id="Ellipse_86" data-name="Ellipse 86" cx="15.32" cy="15.32" r="15.32" transform="translate(18450.93 7167.21)" fill="#43979d"/>
    </g>
  </g>
</svg>
