<svg id="Component_6_32" data-name="Component 6 – 32" xmlns="http://www.w3.org/2000/svg" width="374.255" height="536.738" viewBox="0 0 374.255 536.738">
  <path id="Path_33" data-name="Path 33" d="M1815.77,500.634l-31.66,48.034h89.02l-15.17-49.437" transform="translate(-1684.125 -11.93)" fill="#e8a374"/>
  <path id="Path_34" data-name="Path 34" d="M1932.61,500.634l31.66,48.034h-89.02l15.16-49.437" transform="translate(-1684.125 -11.93)" fill="#e8a374"/>
  <path id="Path_35" data-name="Path 35" d="M1853.14,242.77h40c35.12,0,63.59,21.382,63.59,47.759V425.207c0,15.09-16.288,27.323-36.38,27.323h-94.39c-20.092,0-36.38-12.233-36.38-27.323V290.537c0-26.378,28.458-47.758,63.57-47.767Z" transform="translate(-1683.125 -69.242)" fill="#43979d"/>
  <circle id="Ellipse_33" data-name="Ellipse 33" cx="77.79" cy="77.79" r="77.79" transform="translate(108.975 1.388)" fill="#e8a374"/>
  <ellipse id="Ellipse_34" data-name="Ellipse 34" cx="21.322" cy="32.329" rx="21.322" ry="32.329" transform="translate(171.902 128.673) rotate(-4.004)" fill="#e8a374"/>
  <ellipse id="Ellipse_35" data-name="Ellipse 35" cx="15.72" cy="19.4" rx="15.72" ry="19.4" transform="translate(93.266 63.358)" fill="#e8a374"/>
  <ellipse id="Ellipse_36" data-name="Ellipse 36" cx="15.72" cy="19.4" rx="15.72" ry="19.4" transform="translate(252.074 63.358)" fill="#e8a374"/>
  <path id="Path_36" data-name="Path 36" d="M863.37,515.47c-1.08,3.6,11.53,7.36,15.27,7.14s6.86-3,9.12-6,4-6.4,6.83-8.92a16.26,16.26,0,0,1,20.46-.58c2.43,2,4.22,4.6,6.49,6.75s5.34,3.86,8.41,3.25c6.24-1.25,8-10.69,14.17-12.09,4.6-1,8.66,2.93,11.81,6.44s7.59,7.26,12,5.68c3.91-1.39,5.75-6.38,9.74-7.49s8.1,4.75,11,7.62c4.5,4.53,9.12,7.19,13.61,11.72.09-10.42-5.33-21.37-12.47-29s-16.46-12.84-26.2-16.57c-17.13-6.55-36.4-8.54-53.92-3.11s-34.28,14-43.41,29.55" transform="translate(-742.785 -477.172)" fill="#231f20"/>
  <path id="Path_37" data-name="Path 37" d="M881.22,555a17.029,17.029,0,0,1,13.61-4.43,16.62,16.62,0,0,1,10.22,5.79" transform="translate(-742.785 -477.172)" fill="none" stroke="#231f20" stroke-linecap="round" stroke-miterlimit="10" stroke-width="3"/>
  <path id="Path_38" data-name="Path 38" d="M941.49,588.32c-.63.7-5.55,6-13.2,5.55a16.61,16.61,0,0,1-10.66-4.9" transform="translate(-742.785 -477.172)" fill="none" stroke="#231f20" stroke-linecap="round" stroke-miterlimit="10" stroke-width="3"/>
  <path id="Path_39" data-name="Path 39" d="M953,555a17.058,17.058,0,0,1,13.62-4.43,16.59,16.59,0,0,1,10.21,5.79" transform="translate(-742.785 -477.172)" fill="none" stroke="#231f20" stroke-linecap="round" stroke-miterlimit="10" stroke-width="3"/>
  <path id="Path_40" data-name="Path 40" d="M842.15,552.78c2-4,5.28-6.06,7.58-5.36,2.09.64,2.94,3.44,3.33,4.7a12.14,12.14,0,0,1-.52,8.15" transform="translate(-742.785 -477.172)" fill="none" stroke="#231f20" stroke-linecap="round" stroke-miterlimit="10" stroke-width="2"/>
  <path id="Path_41" data-name="Path 41" d="M846.66,553.21a4.07,4.07,0,0,1,4-1.36,4.24,4.24,0,0,1,2.85,2.47" transform="translate(-742.785 -477.172)" fill="none" stroke="#231f20" stroke-linecap="round" stroke-miterlimit="10" stroke-width="2"/>
  <path id="Path_42" data-name="Path 42" d="M1019.57,552.78c-2-4-5.27-6.06-7.58-5.36-2.08.64-2.94,3.44-3.33,4.7a12.13,12.13,0,0,0,.53,8.15" transform="translate(-742.785 -477.172)" fill="none" stroke="#231f20" stroke-linecap="round" stroke-miterlimit="10" stroke-width="2"/>
  <path id="Path_43" data-name="Path 43" d="M1015.06,553.21a4.07,4.07,0,0,0-4-1.36,4.24,4.24,0,0,0-2.85,2.47" transform="translate(-742.785 -477.172)" fill="none" stroke="#231f20" stroke-linecap="round" stroke-miterlimit="10" stroke-width="2"/>
  <path id="Path_48" data-name="Path 48" d="M912.05,688.61" transform="translate(-742.785 -477.172)" fill="#43979d"/>
  <path id="Path_49" data-name="Path 49" d="M897.27,652.62C893.12,679,913.18,700.79,933.5,701s41-21.23,37.36-47.72" transform="translate(-742.785 -477.172)" fill="none" stroke="#e8a374" stroke-miterlimit="10" stroke-width="1"/>
  <circle id="Ellipse_37" data-name="Ellipse 37" cx="1.02" cy="1.02" r="1.02" transform="translate(146.035 187.608)" fill="#e8a374"/>
  <circle id="Ellipse_38" data-name="Ellipse 38" cx="1.02" cy="1.02" r="1.02" transform="translate(148.074 196.208)" fill="#e8a374"/>
  <circle id="Ellipse_39" data-name="Ellipse 39" cx="1.02" cy="1.02" r="1.02" transform="translate(151.654 203.068)" fill="#e8a374"/>
  <circle id="Ellipse_40" data-name="Ellipse 40" cx="1.02" cy="1.02" r="1.02" transform="translate(155.395 209.138)" fill="#e8a374"/>
  <circle id="Ellipse_41" data-name="Ellipse 41" cx="1.02" cy="1.02" r="1.02" transform="translate(160.625 215.558)" fill="#e8a374"/>
  <circle id="Ellipse_42" data-name="Ellipse 42" cx="1.02" cy="1.02" r="1.02" transform="translate(168.895 221.178)" fill="#e8a374"/>
  <circle id="Ellipse_43" data-name="Ellipse 43" cx="1.02" cy="1.02" r="1.02" transform="translate(177.404 225.008)" fill="#e8a374"/>
  <circle id="Ellipse_44" data-name="Ellipse 44" cx="1.02" cy="1.02" r="1.02" transform="translate(188.154 227.418)" fill="#e8a374"/>
  <circle id="Ellipse_45" data-name="Ellipse 45" cx="1.02" cy="1.02" r="1.02" transform="translate(198.006 226.888)" fill="#e8a374"/>
  <circle id="Ellipse_46" data-name="Ellipse 46" cx="1.02" cy="1.02" r="1.02" transform="translate(206.285 223.698)" fill="#e8a374"/>
  <circle id="Ellipse_47" data-name="Ellipse 47" cx="1.02" cy="1.02" r="1.02" transform="translate(214.145 218.968)" fill="#e8a374"/>
  <circle id="Ellipse_48" data-name="Ellipse 48" cx="1.02" cy="1.02" r="1.02" transform="translate(220.615 212.678)" fill="#e8a374"/>
  <circle id="Ellipse_49" data-name="Ellipse 49" cx="1.02" cy="1.02" r="1.02" transform="translate(225.926 205.118)" fill="#e8a374"/>
  <circle id="Ellipse_50" data-name="Ellipse 50" cx="1.02" cy="1.02" r="1.02" transform="translate(229.215 197.558)" fill="#e8a374"/>
  <circle id="Ellipse_51" data-name="Ellipse 51" cx="1.02" cy="1.02" r="1.02" transform="translate(231.105 189.838)" fill="#e8a374"/>
  <circle id="Ellipse_52" data-name="Ellipse 52" cx="1.02" cy="1.02" r="1.02" transform="translate(231.445 182.418)" fill="#e8a374"/>
  <rect id="Rectangle_36" data-name="Rectangle 36" width="43.57" height="120.46" rx="21.785" transform="translate(89.736 323.222) rotate(-150)" fill="#43979d"/>
  <rect id="Rectangle_37" data-name="Rectangle 37" width="43.57" height="120.46" rx="21.785" transform="translate(108.859 301.432) rotate(150)" fill="#43979d"/>
  <rect id="Rectangle_38" data-name="Rectangle 38" width="43.57" height="120.46" rx="21.785" transform="translate(329.246 200.77) rotate(30)" fill="#43979d"/>
  <rect id="Rectangle_39" data-name="Rectangle 39" width="43.57" height="120.46" rx="21.785" transform="translate(232.158 223.253) rotate(-30)" fill="#43979d"/>
  <path id="Path_50" data-name="Path 50" d="M849.06,771.64A97.579,97.579,0,0,1,854.13,759c1.93-4.09,4-8.08,6.29-12s4.66-7.73,7.23-11.45a95.683,95.683,0,0,1,8.47-10.73,96.257,96.257,0,0,1-5.06,12.7q-2.91,6.12-6.31,12t-7.23,11.45a96.746,96.746,0,0,1-8.46,10.67Z" transform="translate(-742.785 -477.172)" fill="#231f20"/>
  <path id="Path_51" data-name="Path 51" d="M771.8,809.63" transform="translate(-742.785 -477.172)" fill="none" stroke="#231f20" stroke-miterlimit="10" stroke-width="1"/>
  <path id="Path_52" data-name="Path 52" d="M793.59,688.61a21.79,21.79,0,1,1-37.2-15.4,22.131,22.131,0,0,1,6.89-4.66,21.82,21.82,0,0,1,30.31,20.06Z" transform="translate(-742.785 -477.172)" fill="#e8a374"/>
  <rect id="Rectangle_40" data-name="Rectangle 40" width="10.81" height="15.4" rx="5.4" transform="translate(0 205.425) rotate(-45)" fill="#e8a374"/>
  <rect id="Rectangle_41" data-name="Rectangle 41" width="10.81" height="15.4" rx="5.4" transform="translate(6.23 195.654) rotate(-34.35)" fill="#e8a374"/>
  <rect id="Rectangle_42" data-name="Rectangle 42" width="10.81" height="15.4" rx="5.4" transform="translate(14.23 189.264) rotate(-34.35)" fill="#e8a374"/>
  <rect id="Rectangle_43" data-name="Rectangle 43" width="10.81" height="15.4" rx="5.4" transform="translate(45.184 194.662) rotate(36.61)" fill="#e8a374"/>
  <rect id="Rectangle_44" data-name="Rectangle 44" width="10.81" height="38.27" rx="5.4" transform="translate(16.707 167.729) rotate(-21.8)" fill="#e8a374"/>
  <path id="Path_53" data-name="Path 53" d="M1066.25,694.48A21.79,21.79,0,1,0,1088,672.69a21.79,21.79,0,0,0-21.75,21.79Z" transform="translate(-742.785 -477.172)" fill="#e8a374"/>
  <rect id="Rectangle_45" data-name="Rectangle 45" width="10.81" height="15.4" rx="5.4" transform="translate(363.365 222.179) rotate(-135)" fill="#e8a374"/>
  <rect id="Rectangle_46" data-name="Rectangle 46" width="10.824" height="15.419" rx="5.407" transform="translate(351.559 215.895) rotate(-145.993)" fill="#e8a374"/>
  <rect id="Rectangle_47" data-name="Rectangle 47" width="10.81" height="15.4" rx="5.4" transform="translate(351.242 207.806) rotate(-145.65)" fill="#e8a374"/>
  <rect id="Rectangle_48" data-name="Rectangle 48" width="10.81" height="15.4" rx="5.4" transform="translate(338.328 212.83) rotate(143.39)" fill="#e8a374"/>
  <rect id="Rectangle_49" data-name="Rectangle 49" width="10.81" height="38.27" rx="5.4" transform="translate(343.23 209.102) rotate(-158.2)" fill="#e8a374"/>
  <path id="Path_54" data-name="Path 54" d="M794,681.62a29.6,29.6,0,0,1-1.67,3,15.01,15.01,0,0,1-1,1.47,6.186,6.186,0,0,1-1.37,1.23,6,6,0,0,1-3.5,1,8.12,8.12,0,0,1-3.38-1,16.118,16.118,0,0,0,3.37.19,6.631,6.631,0,0,0,3-1,9.259,9.259,0,0,0,2.26-2.32,30.983,30.983,0,0,1,2.29-2.57Z" transform="translate(-742.785 -477.172)" fill="#231f20"/>
  <path id="Path_44" data-name="Path 44" d="M862.49,1355.51" transform="translate(-743.785 -838.172)" fill="#e8a374"/>
  <path id="Path_45" data-name="Path 45" d="M908.79,1363" transform="translate(-743.785 -838.172)" fill="#e8a374"/>
  <line id="Line_10" data-name="Line 10" y2="12.26" transform="translate(126.195 517.328)" fill="#e8a374" stroke="#231f20" stroke-linecap="round" stroke-miterlimit="10" stroke-width="5"/>
  <line id="Line_11" data-name="Line 11" y2="12.26" transform="translate(113.516 517.328)" fill="#e8a374" stroke="#231f20" stroke-linecap="round" stroke-miterlimit="10" stroke-width="5"/>
  <line id="Line_12" data-name="Line 12" y2="12.26" transform="translate(145.596 517.328)" fill="#e8a374" stroke="#231f20" stroke-linecap="round" stroke-miterlimit="10" stroke-width="5"/>
  <line id="Line_13" data-name="Line 13" y2="12.26" transform="translate(166.365 517.328)" fill="#e8a374" stroke="#231f20" stroke-linecap="round" stroke-miterlimit="10" stroke-width="5"/>
  <line id="Line_14" data-name="Line 14" y2="12.26" transform="translate(212.914 518.688)" fill="#e8a374" stroke="#231f20" stroke-linecap="round" stroke-miterlimit="10" stroke-width="5"/>
  <line id="Line_15" data-name="Line 15" y2="12.26" transform="translate(229.686 518.688)" fill="#e8a374" stroke="#231f20" stroke-linecap="round" stroke-miterlimit="10" stroke-width="5"/>
  <line id="Line_16" data-name="Line 16" y2="12.26" transform="translate(246.275 518.688)" fill="#e8a374" stroke="#231f20" stroke-linecap="round" stroke-miterlimit="10" stroke-width="5"/>
  <line id="Line_17" data-name="Line 17" y2="12.26" transform="translate(263.895 518.688)" fill="#e8a374" stroke="#231f20" stroke-linecap="round" stroke-miterlimit="10" stroke-width="5"/>
  <path id="Path_46" data-name="Path 46" d="M1806.23,504l-24.85,119.15h91.75l-2.22-121.2" transform="translate(-1684.125 -127.242)" fill="#43979d"/>
  <path id="Path_47" data-name="Path 47" d="M1943.84,504l24.85,119.15h-91.74l2.21-121.2" transform="translate(-1686.125 -127.242)" fill="#43979d"/>
  <circle id="Ellipse_53" data-name="Ellipse 53" cx="15.32" cy="15.32" r="15.32" transform="translate(175.805 367.968)" fill="#43979d"/>
</svg>
