<svg xmlns="http://www.w3.org/2000/svg" width="375.041" height="897.69" viewBox="0 0 375.041 897.69">
  <g id="Group_44" data-name="Group 44" transform="translate(-17906 -6724.19)">
    <path id="Path_99" data-name="Path 99" d="M2633.3,190.31l-.72,107.79,139.69.21V178.57" transform="translate(15386 6636)" fill="#231f20"/>
    <path id="Path_108" data-name="Path 108" d="M2645.42,531.41l-31.66,454.47h89.02l-15.16-467.74" transform="translate(15386 6636)" fill="#e8a374"/>
    <path id="Path_109" data-name="Path 109" d="M2762.27,531.41l31.66,454.47h-89.02l15.16-467.74" transform="translate(15386 6636)" fill="#e8a374"/>
    <path id="Path_100" data-name="Path 100" d="M2682.8,261.68h40a63.59,63.59,0,0,1,63.59,63.59V504.58A36.38,36.38,0,0,1,2750,541h-94.39a36.38,36.38,0,0,1-36.38-36.38V325.27a63.591,63.591,0,0,1,63.57-63.59Z" transform="translate(15386 6636)" fill="#43979d"/>
    <circle id="Ellipse_95" data-name="Ellipse 95" cx="77.79" cy="77.79" r="77.79" transform="translate(18007.76 6725.54)" fill="#e8a374"/>
    <ellipse id="Ellipse_97" data-name="Ellipse 97" cx="21.322" cy="32.329" rx="21.322" ry="32.329" transform="translate(18072.662 6851.389) rotate(-4.004)" fill="#e8a374"/>
    <ellipse id="Ellipse_96" data-name="Ellipse 96" cx="15.72" cy="19.4" rx="15.72" ry="19.4" transform="translate(17992.039 6787.5)" fill="#e8a374"/>
    <ellipse id="Ellipse_114" data-name="Ellipse 114" cx="15.72" cy="19.4" rx="15.72" ry="19.4" transform="translate(18150.85 6787.5)" fill="#e8a374"/>
    <path id="Path_101" data-name="Path 101" d="M1693,534.38c-1.09,3.59,11.52,7.35,15.27,7.14s6.86-3,9.12-6,4-6.41,6.82-8.93a16.28,16.28,0,0,1,20.47-.57c2.43,2,4.22,4.6,6.49,6.75s5.34,3.85,8.4,3.24c6.25-1.24,8-10.68,14.18-12.08,4.6-1.05,8.66,2.92,11.81,6.44s7.58,7.25,12,5.67c3.91-1.39,5.74-6.38,9.74-7.49s8.1,4.75,11,7.63c4.5,4.52,9.11,7.19,13.61,11.71.08-10.42-5.33-21.37-12.48-28.95s-16.46-12.85-26.19-16.57c-17.13-6.55-36.4-8.54-53.92-3.12s-34.28,14.05-43.41,29.56" transform="translate(16326.34 6228.07)" fill="#231f20"/>
    <path id="Path_102" data-name="Path 102" d="M1710.87,573.9a17.065,17.065,0,0,1,13.62-4.42,16.61,16.61,0,0,1,10.21,5.78" transform="translate(16326.34 6228.07)" fill="none" stroke="#231f20" stroke-linecap="round" stroke-miterlimit="10" stroke-width="3"/>
    <path id="Path_110" data-name="Path 110" d="M1771.14,607.22c-.63.71-5.54,6-13.19,5.56a16.64,16.64,0,0,1-10.67-4.91" transform="translate(16326.34 6228.07)" fill="none" stroke="#231f20" stroke-linecap="round" stroke-miterlimit="10" stroke-width="3"/>
    <path id="Path_111" data-name="Path 111" d="M1782.69,573.9a17.065,17.065,0,0,1,13.62-4.42,16.64,16.64,0,0,1,10.21,5.78" transform="translate(16326.34 6228.07)" fill="none" stroke="#231f20" stroke-linecap="round" stroke-miterlimit="10" stroke-width="3"/>
    <path id="Path_103" data-name="Path 103" d="M1671.81,571.69c2-4,5.27-6.07,7.57-5.36,2.09.64,2.95,3.43,3.34,4.69a12.162,12.162,0,0,1-.53,8.16" transform="translate(16326.34 6228.07)" fill="none" stroke="#231f20" stroke-linecap="round" stroke-miterlimit="10" stroke-width="2"/>
    <path id="Path_104" data-name="Path 104" d="M1676.32,572.11a4.11,4.11,0,0,1,4-1.36,4.26,4.26,0,0,1,2.85,2.47" transform="translate(16326.34 6228.07)" fill="none" stroke="#231f20" stroke-linecap="round" stroke-miterlimit="10" stroke-width="2"/>
    <path id="Path_117" data-name="Path 117" d="M1849.23,571.69c-2-4-5.28-6.07-7.58-5.36-2.09.64-3,3.43-3.33,4.69a12.169,12.169,0,0,0,.52,8.16" transform="translate(16326.34 6228.07)" fill="none" stroke="#231f20" stroke-linecap="round" stroke-miterlimit="10" stroke-width="2"/>
    <path id="Path_118" data-name="Path 118" d="M1844.72,572.11a4.11,4.11,0,0,0-4-1.36,4.29,4.29,0,0,0-2.86,2.47" transform="translate(16326.34 6228.07)" fill="none" stroke="#231f20" stroke-linecap="round" stroke-miterlimit="10" stroke-width="2"/>
    <path id="Path_115" data-name="Path 115" d="M1692.15,1374.41" transform="translate(16326.34 6228.07)" fill="#e8a374"/>
    <path id="Path_116" data-name="Path 116" d="M1738.45,1381.9" transform="translate(16326.34 6228.07)" fill="#e8a374"/>
    <line id="Line_38" data-name="Line 38" y2="12.25" transform="translate(18025.98 7602.48)" fill="#e8a374" stroke="#231f20" stroke-linecap="round" stroke-miterlimit="10" stroke-width="5"/>
    <line id="Line_39" data-name="Line 39" y2="12.25" transform="translate(18013.301 7602.48)" fill="#e8a374" stroke="#231f20" stroke-linecap="round" stroke-miterlimit="10" stroke-width="5"/>
    <line id="Line_40" data-name="Line 40" y2="12.25" transform="translate(18045.379 7602.48)" fill="#e8a374" stroke="#231f20" stroke-linecap="round" stroke-miterlimit="10" stroke-width="5"/>
    <line id="Line_41" data-name="Line 41" y2="12.25" transform="translate(18066.15 7602.48)" fill="#e8a374" stroke="#231f20" stroke-linecap="round" stroke-miterlimit="10" stroke-width="5"/>
    <line id="Line_42" data-name="Line 42" y2="12.25" transform="translate(18112.699 7603.84)" fill="#e8a374" stroke="#231f20" stroke-linecap="round" stroke-miterlimit="10" stroke-width="5"/>
    <line id="Line_43" data-name="Line 43" y2="12.25" transform="translate(18129.471 7603.84)" fill="#e8a374" stroke="#231f20" stroke-linecap="round" stroke-miterlimit="10" stroke-width="5"/>
    <line id="Line_44" data-name="Line 44" y2="12.25" transform="translate(18146.061 7603.84)" fill="#e8a374" stroke="#231f20" stroke-linecap="round" stroke-miterlimit="10" stroke-width="5"/>
    <line id="Line_45" data-name="Line 45" y2="12.25" transform="translate(18163.68 7603.84)" fill="#e8a374" stroke="#231f20" stroke-linecap="round" stroke-miterlimit="10" stroke-width="5"/>
    <path id="Path_112" data-name="Path 112" d="M1741.71,707.52" transform="translate(16326.34 6228.07)" fill="#43979d"/>
    <path id="Path_113" data-name="Path 113" d="M1726.93,671.53c-4.15,26.32,15.91,48.17,36.23,48.41s41-21.23,37.36-47.71" transform="translate(16326.34 6228.07)" fill="none" stroke="#e8a374" stroke-miterlimit="10" stroke-width="1"/>
    <circle id="Ellipse_98" data-name="Ellipse 98" cx="1.02" cy="1.02" r="1.02" transform="translate(18044.82 6911.76)" fill="#e8a374"/>
    <circle id="Ellipse_99" data-name="Ellipse 99" cx="1.02" cy="1.02" r="1.02" transform="translate(18046.859 6920.35)" fill="#e8a374"/>
    <circle id="Ellipse_100" data-name="Ellipse 100" cx="1.02" cy="1.02" r="1.02" transform="translate(18050.43 6927.21)" fill="#e8a374"/>
    <circle id="Ellipse_101" data-name="Ellipse 101" cx="1.02" cy="1.02" r="1.02" transform="translate(18054.18 6933.29)" fill="#e8a374"/>
    <circle id="Ellipse_102" data-name="Ellipse 102" cx="1.02" cy="1.02" r="1.02" transform="translate(18059.41 6939.7)" fill="#e8a374"/>
    <circle id="Ellipse_103" data-name="Ellipse 103" cx="1.02" cy="1.02" r="1.02" transform="translate(18067.68 6945.33)" fill="#e8a374"/>
    <circle id="Ellipse_104" data-name="Ellipse 104" cx="1.02" cy="1.02" r="1.02" transform="translate(18076.18 6949.16)" fill="#e8a374"/>
    <circle id="Ellipse_105" data-name="Ellipse 105" cx="1.02" cy="1.02" r="1.02" transform="translate(18086.939 6951.57)" fill="#e8a374"/>
    <circle id="Ellipse_106" data-name="Ellipse 106" cx="1.02" cy="1.02" r="1.02" transform="translate(18096.789 6951.04)" fill="#e8a374"/>
    <circle id="Ellipse_107" data-name="Ellipse 107" cx="1.02" cy="1.02" r="1.02" transform="translate(18105.07 6947.85)" fill="#e8a374"/>
    <circle id="Ellipse_108" data-name="Ellipse 108" cx="1.02" cy="1.02" r="1.02" transform="translate(18112.93 6943.11)" fill="#e8a374"/>
    <circle id="Ellipse_109" data-name="Ellipse 109" cx="1.02" cy="1.02" r="1.02" transform="translate(18119.4 6936.82)" fill="#e8a374"/>
    <circle id="Ellipse_110" data-name="Ellipse 110" cx="1.02" cy="1.02" r="1.02" transform="translate(18124.711 6929.27)" fill="#e8a374"/>
    <circle id="Ellipse_111" data-name="Ellipse 111" cx="1.02" cy="1.02" r="1.02" transform="translate(18127.99 6921.71)" fill="#e8a374"/>
    <circle id="Ellipse_112" data-name="Ellipse 112" cx="1.02" cy="1.02" r="1.02" transform="translate(18129.891 6913.99)" fill="#e8a374"/>
    <circle id="Ellipse_113" data-name="Ellipse 113" cx="1.02" cy="1.02" r="1.02" transform="translate(18130.23 6906.56)" fill="#e8a374"/>
    <rect id="Rectangle_78" data-name="Rectangle 78" width="43.57" height="120.46" rx="21.785" transform="translate(17988.51 7047.366) rotate(-150)" fill="#43979d"/>
    <rect id="Rectangle_79" data-name="Rectangle 79" width="43.57" height="120.46" rx="21.785" transform="translate(18007.645 7025.586) rotate(150)" fill="#43979d"/>
    <rect id="Rectangle_84" data-name="Rectangle 84" width="43.57" height="120.46" rx="21.785" transform="translate(18236.018 6928.924) rotate(30)" fill="#43979d"/>
    <rect id="Rectangle_83" data-name="Rectangle 83" width="43.72" height="120.875" rx="21.86" transform="translate(18138.221 6950.182) rotate(-29.887)" fill="#43979d"/>
    <path id="Path_105" data-name="Path 105" d="M1678.72,790.55a96.25,96.25,0,0,1,5.06-12.7q2.91-6.12,6.3-12t7.23-11.45a95.789,95.789,0,0,1,8.47-10.74,97.138,97.138,0,0,1-5.07,12.7q-2.89,6.14-6.3,12t-7.23,11.44a96.828,96.828,0,0,1-8.46,10.75Z" transform="translate(16326.34 6228.07)" fill="#231f20"/>
    <path id="Path_106" data-name="Path 106" d="M1623.24,707.52a21.79,21.79,0,1,1-40.83-10.6,22.225,22.225,0,0,1,3.64-4.81,21.79,21.79,0,0,1,37.19,15.41Z" transform="translate(16326.34 6228.07)" fill="#e8a374"/>
    <rect id="Rectangle_80" data-name="Rectangle 80" width="10.81" height="15.4" rx="5.4" transform="translate(17913.061 6913.463) rotate(-34.35)" fill="#e8a374"/>
    <rect id="Rectangle_81" data-name="Rectangle 81" width="10.81" height="15.4" rx="5.4" transform="translate(17943.988 6918.777) rotate(36.61)" fill="#e8a374"/>
    <rect id="Rectangle_82" data-name="Rectangle 82" width="10.81" height="38.27" rx="5.4" transform="translate(17915.525 6891.938) rotate(-21.8)" fill="#e8a374"/>
    <path id="Path_119" data-name="Path 119" d="M1895.91,713.38a21.987,21.987,0,1,1,0,.02Z" transform="translate(16334.34 6232.07)" fill="#e8a374"/>
    <rect id="Rectangle_89" data-name="Rectangle 89" width="10.81" height="15.4" rx="5.4" transform="translate(18270.152 6950.319) rotate(-135)" fill="#e8a374"/>
    <rect id="Rectangle_88" data-name="Rectangle 88" width="10.81" height="15.4" rx="5.4" transform="translate(18265.977 6942.378) rotate(-145.65)" fill="#e8a374"/>
    <rect id="Rectangle_87" data-name="Rectangle 87" width="10.81" height="15.4" rx="5.4" transform="translate(18257.982 6936) rotate(-145.65)" fill="#e8a374"/>
    <rect id="Rectangle_85" data-name="Rectangle 85" width="10.81" height="15.4" rx="5.4" transform="translate(18245.08 6940.929) rotate(143.39)" fill="#e8a374"/>
    <rect id="Rectangle_86" data-name="Rectangle 86" width="10.81" height="38.27" rx="5.4" transform="translate(18249.973 6937.315) rotate(-158.2)" fill="#e8a374"/>
    <path id="Path_107" data-name="Path 107" d="M1623.62,700.53a32.91,32.91,0,0,1-1.67,3,14.9,14.9,0,0,1-1,1.46,6.467,6.467,0,0,1-1.37,1.24,5.92,5.92,0,0,1-3.51,1,8,8,0,0,1-3.37-1,16,16,0,0,0,3.36.18,6.32,6.32,0,0,0,3-1,8.888,8.888,0,0,0,2.26-2.31,31.265,31.265,0,0,1,2.3-2.57Z" transform="translate(16326.34 6228.07)" fill="#231f20"/>
    <path id="Path_114" data-name="Path 114" d="M2786.36,567.68l29.56,116.71H2594.56l24.65-116.71.08-60.74,167.07-2.36" transform="translate(15386 6636)" fill="#43979d"/>
    <line id="Line_36" data-name="Line 36" x2="167.15" transform="translate(18005.211 7126.06)" fill="none" stroke="#e8a374" stroke-miterlimit="10" stroke-width="4"/>
    <line id="Line_37" data-name="Line 37" x2="167.15" transform="translate(18004.379 7137.8)" fill="none" stroke="#e8a374" stroke-miterlimit="10" stroke-width="4"/>
  </g>
</svg>
